<?xml version="1.0" encoding="UTF-8"?>
<svg width="102px" height="22px" viewBox="0 0 102 22" version="1.1" xmlns="http://www.w3.org/2000/svg" xmlns:xlink="http://www.w3.org/1999/xlink">
    <title>画板</title>
    <g id="画板" stroke="none" stroke-width="1" fill="none" fill-rule="evenodd">
        <path d="M102,0 L102,22 L0,22 L0,0 L102,0 Z M100,2 L2,2 L2,20 L100,20 L100,2 Z M6,3 L20,11 L6,19 L6,12.13 L8.14141414,12.13 C8.6853184,13.4611216 10.105716,14.2240431 11.5294204,13.94976 C12.9531249,13.675477 13.9808833,12.4409072 13.9808833,11.005 C13.9808833,9.56909277 12.9531249,8.33452304 11.5294204,8.06023997 C10.105716,7.7859569 8.6853184,8.54887837 8.14141414,9.88 L8.14141414,9.88 L6,9.88 L6,3 Z M84.568,6.804 C85.016,6.804 85.404,6.848 85.732,6.936 C86.06,7.024 86.336,7.124 86.56,7.236 C86.824,7.364 87.044,7.504 87.22,7.656 L87.22,7.656 L85.768,9.72 L85.65325,9.629625 C85.53175,9.544875 85.39,9.477 85.228,9.426 C85.012,9.358 84.8,9.324 84.592,9.324 C84.36,9.324 84.148,9.366 83.956,9.45 C83.764,9.534 83.598,9.65 83.458,9.798 C83.318,9.946 83.208,10.124 83.128,10.332 C83.048,10.54 83.008,10.764 83.008,11.004 C83.008,11.244 83.052,11.468 83.14,11.676 C83.228,11.884 83.348,12.062 83.5,12.21 C83.652,12.358 83.83,12.474 84.034,12.558 C84.238,12.642 84.456,12.684 84.688,12.684 C84.96,12.684 85.208,12.626 85.432,12.51 C85.656,12.394 85.848,12.236 86.008,12.036 L86.008,12.036 L85.288,12.036 L85.288,10.356 L88.372,10.356 L88.372,13.02 L88.22725,13.260375 C88.07575,13.495125 87.904,13.713 87.712,13.914 C87.456,14.182 87.17,14.412 86.854,14.604 C86.538,14.796 86.196,14.944 85.828,15.048 C85.46,15.152 85.08,15.204 84.688,15.204 C84.112,15.204 83.568,15.096 83.056,14.88 C82.544,14.664 82.098,14.368 81.718,13.992 C81.338,13.616 81.038,13.172 80.818,12.66 C80.598,12.148 80.488,11.596 80.488,11.004 C80.488,10.428 80.592,9.884 80.8,9.372 C81.008,8.86 81.294,8.414 81.658,8.034 C82.022,7.654 82.454,7.354 82.954,7.134 C83.454,6.914 83.992,6.804 84.568,6.804 Z M91.444,6.804 C91.636,6.804 91.828,6.814 92.02,6.834 C92.212,6.854 92.384,6.872 92.536,6.888 C92.712,6.912 92.884,6.936 93.052,6.96 L93.052,6.96 L93.052,9.204 L92.95,9.192 L92.95,9.192 L92.836,9.18 C92.772,9.172 92.7,9.164 92.62,9.156 C92.54,9.148 92.456,9.144 92.368,9.144 C92.32,9.144 92.26,9.146 92.188,9.15 C92.116,9.154 92.048,9.164 91.984,9.18 C91.92,9.196 91.864,9.224 91.816,9.264 C91.768,9.304 91.744,9.36 91.744,9.432 C91.744,9.496 91.798,9.576 91.906,9.672 C92.014,9.768 92.146,9.88 92.302,10.008 C92.458,10.136 92.63,10.284 92.818,10.452 C93.006,10.62 93.178,10.812 93.334,11.028 C93.49,11.244 93.622,11.488 93.73,11.76 C93.838,12.032 93.892,12.336 93.892,12.672 C93.892,13.024 93.836,13.354 93.724,13.662 C93.612,13.97 93.438,14.238 93.202,14.466 C92.966,14.694 92.664,14.874 92.296,15.006 C91.928,15.138 91.492,15.204 90.988,15.204 C90.684,15.204 90.402,15.19 90.142,15.162 C89.882,15.134 89.652,15.1 89.452,15.06 C89.22,15.02 89.008,14.972 88.816,14.916 L88.816,14.916 L88.816,12.516 L88.9946667,12.568 C89.1155556,12.6 89.24,12.6266667 89.368,12.648 C89.528,12.688 89.71,12.72 89.914,12.744 C90.118,12.768 90.324,12.78 90.532,12.78 C90.9,12.78 91.084,12.644 91.084,12.372 C91.084,12.268 91.028,12.162 90.916,12.054 C90.804,11.946 90.662,11.826 90.49,11.694 C90.318,11.562 90.134,11.416 89.938,11.256 C89.742,11.096 89.558,10.912 89.386,10.704 C89.214,10.496 89.072,10.262 88.96,10.002 C88.848,9.742 88.792,9.444 88.792,9.108 C88.792,8.732 88.86,8.4 88.996,8.112 C89.132,7.824 89.32,7.584 89.56,7.392 C89.8,7.2 90.082,7.054 90.406,6.954 C90.73,6.854 91.076,6.804 91.444,6.804 Z M30.592,6.996 L30.592,9.096 L29.116,9.096 L29.116,15 L26.476,15 L26.476,9.096 L25,9.096 L25,6.996 L30.592,6.996 Z M33.772,6.996 L34.07464,7.00416 C34.47208,7.02592 34.8452,7.0912 35.194,7.2 C35.63,7.336 36.008,7.536 36.328,7.8 C36.648,8.064 36.898,8.39 37.078,8.778 C37.258,9.166 37.348,9.612 37.348,10.116 C37.348,10.516 37.292,10.856 37.18,11.136 C37.068,11.416 36.944,11.648 36.808,11.832 C36.648,12.04 36.468,12.216 36.268,12.36 L36.268,12.36 L37.515,14.557 L37.348,15 L34.768,15 L33.568,12.972 L33.568,15 L31.012,15 L31.012,6.996 L33.772,6.996 Z M42.304,6.996 L45.34,15 L42.82,15 L42.556,14.28 L40.132,14.28 L39.868,15 L37.768,15 L37.515,14.557 L40.384,6.996 L42.304,6.996 Z M47.656,6.996 L49.012,10.476 L50.38,6.996 L53.176,6.996 L50.056,15 L47.98,15 L44.86,6.996 L47.656,6.996 Z M58.072,6.996 L58.072,9.096 L55.912,9.096 L55.912,9.984 L58.036,9.984 L58.036,11.976 L55.912,11.976 L55.912,12.9 L58.156,12.9 L58.156,15 L53.356,15 L53.356,6.996 L58.072,6.996 Z M61.54,6.996 L61.54,12.9 L63.748,12.9 L63.748,15 L58.876,15 L58.876,6.996 L61.54,6.996 Z M66.832,6.996 L66.832,12.9 L69.04,12.9 L69.04,15 L64.168,15 L64.168,6.996 L66.832,6.996 Z M72.172,6.996 L72.172,15 L69.46,15 L69.46,6.996 L72.172,6.996 Z M75.112,6.996 L77.32,10.08 L77.32,6.996 L79.828,6.996 L79.828,15 L77.716,15 L75.52,11.928 L75.52,15 L73.012,15 L73.012,6.996 L75.112,6.996 Z M41.344,11.112 L40.804,12.516 L41.884,12.516 L41.344,11.112 Z M33.7,9.156 L33.568,9.156 L33.568,10.932 L33.7,10.932 C34.004,10.932 34.262,10.864 34.474,10.728 C34.686,10.592 34.792,10.364 34.792,10.044 C34.792,9.724 34.686,9.496 34.474,9.36 C34.262,9.224 34.004,9.156 33.7,9.156 L33.7,9.156 Z" id="形状结合" fill="#000000" fill-rule="nonzero"></path>
    </g>
</svg>